<svg width="64" height="64" viewBox="0 0 64 64" fill="none" xmlns="http://www.w3.org/2000/svg">
  <!-- 背景圆角矩形 -->
  <rect width="64" height="64" rx="16" fill="#4ade80"/>
  
  <!-- 网页窗口 -->
  <rect x="12" y="12" width="40" height="32" rx="4" fill="white"/>
  
  <!-- 网页标题栏 -->
  <rect x="12" y="12" width="40" height="8" rx="4" fill="#16a34a"/>
  <circle cx="17" cy="16" r="1.5" fill="white"/>
  <circle cx="21" cy="16" r="1.5" fill="white"/>
  <circle cx="25" cy="16" r="1.5" fill="white"/>
  
  <!-- 网页内容线条 -->
  <rect x="16" y="26" width="12" height="3" fill="#4ade80"/>
  <rect x="16" y="31" width="16" height="2" fill="#86efac"/>
  <rect x="16" y="35" width="20" height="2" fill="#86efac"/>
  <rect x="16" y="39" width="14" height="2" fill="#86efac"/>
  
  <!-- 工具图标 -->
  <circle cx="44" y="36" r="6" fill="#16a34a"/>
  <path d="M41 36L43 38L47 34" stroke="white" stroke-width="2" stroke-linecap="round" stroke-linejoin="round"/>
  
  <!-- 装饰元素 -->
  <rect x="48" y="48" width="8" height="8" rx="2" fill="#dcfce7"/>
  <path d="M50 52L52 50L54 52" stroke="#16a34a" stroke-width="1.5" stroke-linecap="round" stroke-linejoin="round"/>
</svg> 